<svg id="add" xmlns="http://www.w3.org/2000/svg" width="21.441" height="21.441" viewBox="0 0 21.441 21.441">
  <g id="Group_52" data-name="Group 52" transform="translate(0)">
    <g id="Group_51" data-name="Group 51">
      <path id="Path_26" data-name="Path 26" d="M15.393,10.758a10.9,10.9,0,0,0-1.26-.506,5.7,5.7,0,1,0-6.819,0A10.893,10.893,0,0,0,.055,18.372a2.544,2.544,0,0,0,2.487,3.069H12.856a.838.838,0,1,0,0-1.675H2.542a.851.851,0,0,1-.67-.319.875.875,0,0,1-.177-.734,9.254,9.254,0,0,1,8.8-7.327q.11,0,.222,0t.224,0a9.123,9.123,0,0,1,3.729.885.838.838,0,0,0,.719-1.513ZM10.925,9.71l-.2,0-.2,0a4.02,4.02,0,1,1,.407,0Z" transform="translate(0)" fill="#0e254a"/>
    </g>
  </g>
  <g id="Group_54" data-name="Group 54" transform="translate(13.484 13.484)">
    <g id="Group_53" data-name="Group 53">
      <path id="Path_27" data-name="Path 27" d="M329.119,325.141h-2.3v-2.3a.838.838,0,0,0-1.675,0v2.3h-2.3a.838.838,0,0,0,0,1.675h2.3v2.3a.838.838,0,0,0,1.675,0v-2.3h2.3a.838.838,0,0,0,0-1.675Z" transform="translate(-322 -322)" fill="#0e254a"/>
    </g>
  </g>
</svg>
