<svg xmlns="http://www.w3.org/2000/svg" width="26.667" height="20" viewBox="0 0 26.667 20">
  <g id="hide" transform="translate(0 -64)">
    <g id="Group_509" data-name="Group 509" transform="translate(0 66.223)">
      <g id="Group_508" data-name="Group 508" transform="translate(0 0)">
        <path id="Path_328" data-name="Path 328" d="M13.333,106.673c-6.845,0-12.945,7.115-13.2,7.419a.555.555,0,0,0,0,.718,27.808,27.808,0,0,0,5.629,4.858l3.482-3.482a4.443,4.443,0,0,1,5.825-5.825l2.863-2.863A13.57,13.57,0,0,0,13.333,106.673Z" transform="translate(0 -106.673)" fill="rgba(14,37,74,0.3)"/>
      </g>
    </g>
    <g id="Group_511" data-name="Group 511" transform="translate(3.334 64)">
      <g id="Group_510" data-name="Group 510" transform="translate(0 0)">
        <path id="Path_329" data-name="Path 329" d="M87.26,73.683a20.37,20.37,0,0,0-6.467-5.665l3.07-3.07a.555.555,0,0,0-.786-.786L64.189,83.051a.556.556,0,0,0,0,.786.55.55,0,0,0,.392.163.558.558,0,0,0,.393-.162l3.483-3.483a12.8,12.8,0,0,0,5.568,1.423c6.845,0,12.945-7.115,13.2-7.419A.557.557,0,0,0,87.26,73.683ZM74.026,78.445a4.4,4.4,0,0,1-2.711-.948l6.208-6.208a4.42,4.42,0,0,1-3.5,7.155Z" transform="translate(-64.027 -64)" fill="rgba(14,37,74,0.3)"/>
      </g>
    </g>
  </g>
</svg>
