<svg xmlns="http://www.w3.org/2000/svg" width="16.062" height="18.654" viewBox="0 0 16.062 18.654">
  <g id="refresh" transform="translate(-32.024 0)">
    <g id="Group_324" data-name="Group 324" transform="translate(32.024 0)">
      <path id="Path_280" data-name="Path 280" d="M40.313,2.765V.347a.343.343,0,0,0-.591-.242l-3.8,3.8a.345.345,0,0,0,0,.487l3.8,3.8a.345.345,0,0,0,.591-.245V5.528a5.181,5.181,0,1,1-5.526,5.181.345.345,0,0,0-.345-.345H32.369a.345.345,0,0,0-.345.345,8.03,8.03,0,1,0,8.289-7.944Z" transform="translate(-32.024 0)" fill="#0e254a"/>
    </g>
  </g>
</svg>
