<svg xmlns="http://www.w3.org/2000/svg" width="16.91" height="16.91" viewBox="0 0 16.91 16.91">
  <g id="refresh-2" transform="translate(0)">
    <g id="Group_326" data-name="Group 326" transform="translate(0 0)">
      <g id="Group_325" data-name="Group 325" transform="translate(0)">
        <path id="Path_281" data-name="Path 281" d="M15.315,5.372l-.7-4.9a.5.5,0,0,0-.841-.28l-1.02,1.02A8.412,8.412,0,0,0,0,8.208a.5.5,0,0,0,.425.5l1.98.283a.5.5,0,0,0,.566-.5,5.449,5.449,0,0,1,7.583-5.089l-.984.984a.5.5,0,0,0,.28.841l4.9.7A.5.5,0,0,0,15.315,5.372Z" transform="translate(0 0)" fill="#0e254a"/>
      </g>
    </g>
    <g id="Group_328" data-name="Group 328" transform="translate(1.57 7.952)">
      <g id="Group_327" data-name="Group 327">
        <path id="Path_282" data-name="Path 282" d="M62.431,241.047l-1.978-.283a.53.53,0,0,0-.566.533,5.449,5.449,0,0,1-7.573,5.018l.952-.952a.5.5,0,0,0-.28-.841l-4.9-.7a.5.5,0,0,0-.561.561l.7,4.9a.5.5,0,0,0,.841.28l1.045-1.044a8.425,8.425,0,0,0,12.749-6.97A.5.5,0,0,0,62.431,241.047Z" transform="translate(-47.516 -240.761)" fill="#0e254a"/>
      </g>
    </g>
  </g>
</svg>
