<svg xmlns="http://www.w3.org/2000/svg" width="21.648" height="21.648" viewBox="0 0 21.648 21.648">
  <path id="gear" d="M20.015,8.082,18.4,7.877a8.126,8.126,0,0,0-.489-1.182l1-1.286a1.279,1.279,0,0,0-.1-1.7L17.447,2.35a1.282,1.282,0,0,0-1.708-.109l-1.285,1a8.108,8.108,0,0,0-1.183-.489l-.206-1.615A1.289,1.289,0,0,0,11.788,0H9.861A1.288,1.288,0,0,0,8.582,1.133L8.377,2.751a8,8,0,0,0-1.183.489l-1.285-1a1.28,1.28,0,0,0-1.7.1L2.85,3.7a1.283,1.283,0,0,0-.109,1.709l1,1.285a8.022,8.022,0,0,0-.489,1.182l-1.615.206A1.288,1.288,0,0,0,.5,9.361v1.927a1.288,1.288,0,0,0,1.133,1.278l1.617.206a8.126,8.126,0,0,0,.489,1.182l-1,1.286a1.279,1.279,0,0,0,.1,1.7L4.2,18.3a1.283,1.283,0,0,0,1.708.108l1.285-1a7.938,7.938,0,0,0,1.182.49l.206,1.614a1.289,1.289,0,0,0,1.278,1.137h1.927a1.288,1.288,0,0,0,1.278-1.133l.206-1.617a8.126,8.126,0,0,0,1.182-.489l1.286,1a1.279,1.279,0,0,0,1.7-.1L18.8,16.947a1.281,1.281,0,0,0,.109-1.708l-1-1.285a7.937,7.937,0,0,0,.489-1.182l1.614-.206a1.288,1.288,0,0,0,1.136-1.278V9.361A1.287,1.287,0,0,0,20.015,8.082Zm-9.191,6.544a4.3,4.3,0,1,1,4.3-4.3A4.307,4.307,0,0,1,10.824,14.626Zm0,0" transform="translate(0 0.5)" fill="#fff" stroke="#fff" stroke-width="1"/>
</svg>
