<svg id="block" xmlns="http://www.w3.org/2000/svg" width="20.615" height="20.615" viewBox="0 0 20.615 20.615">
  <g id="Group_323" data-name="Group 323">
    <path id="Path_279" data-name="Path 279" d="M17.567,3.048A10.226,10.226,0,0,0,10.307,0,10.307,10.307,0,1,0,20.615,10.307,10.225,10.225,0,0,0,17.567,3.048ZM10.307,18.158A7.849,7.849,0,0,1,3.966,5.681L14.933,16.637A7.7,7.7,0,0,1,10.307,18.158Zm6.329-3.225L5.681,3.966a7.849,7.849,0,0,1,12.477,6.341A7.7,7.7,0,0,1,16.637,14.933Z" fill="#fff"/>
  </g>
</svg>
