<svg id="programmer" xmlns="http://www.w3.org/2000/svg" width="24" height="24" viewBox="0 0 24 24">
  <path id="Path_287" data-name="Path 287" d="M9,0a5,5,0,1,0,5,5A5.006,5.006,0,0,0,9,0Z" fill="#0e254a"/>
  <path id="Path_288" data-name="Path 288" d="M16.582,23.98a.75.75,0,0,1-.563-.9l1.5-6.5a.75.75,0,0,1,1.462.337l-1.5,6.5A.748.748,0,0,1,16.582,23.98Z" fill="#0e254a"/>
  <path id="Path_289" data-name="Path 289" d="M20.75,23a.75.75,0,0,1-.5-1.308L22.129,20l-1.881-1.692a.751.751,0,1,1,1-1.116l2.5,2.25a.752.752,0,0,1,0,1.116l-2.5,2.25a.749.749,0,0,1-.5.192Z" fill="#0e254a"/>
  <path id="Path_290" data-name="Path 290" d="M14.25,23a.749.749,0,0,1-.5-.192l-2.5-2.25a.752.752,0,0,1,0-1.116l2.5-2.25a.751.751,0,1,1,1,1.116L12.871,20l1.881,1.692A.75.75,0,0,1,14.25,23Z" fill="#0e254a"/>
  <path id="Path_291" data-name="Path 291" d="M9.25,20a2.756,2.756,0,0,1,.907-2.041l2.5-2.253a2.74,2.74,0,0,1,3.4-.212A2.732,2.732,0,0,1,17.7,14.122,4.747,4.747,0,0,0,13.75,12h-9A4.756,4.756,0,0,0,0,16.75v4a.75.75,0,0,0,.75.75H9.708A2.747,2.747,0,0,1,9.25,20Z" fill="#0e254a"/>
</svg>
