<svg xmlns="http://www.w3.org/2000/svg" width="25.601" height="25.441" viewBox="0 0 25.601 25.441">
  <g id="Group_603" data-name="Group 603" transform="translate(-90.39 -217)">
    <g id="Group_322" data-name="Group 322" transform="translate(-3411 -1508)">
      <g id="report" transform="translate(3501.39 1725)">
        <path id="Path_278" data-name="Path 278" d="M22.4,25.441l-7.43-4.64H1.6A1.6,1.6,0,0,1,0,19.2V1.6A1.6,1.6,0,0,1,1.6,0H24a1.6,1.6,0,0,1,1.6,1.6V19.2A1.6,1.6,0,0,1,24,20.8H22.4Zm0,0" transform="translate(0 0)" fill="#fff"/>
      </g>
      <text id="X" transform="translate(3514 1741)" fill="#fff" font-size="15" font-family="Helvetica-Bold, Helvetica" font-weight="700"><tspan x="-5.002" y="0">X</tspan></text>
    </g>
    <g id="Group_601" data-name="Group 601" transform="translate(86 214.796)">
      <g id="Group_262" data-name="Group 262" transform="translate(13 5)">
        <text id="X-2" data-name="X" transform="translate(0 12.204)" fill="#5087de" font-size="15" font-family="Helvetica"><tspan x="0" y="0">X</tspan></text>
      </g>
    </g>
  </g>
</svg>
