<svg xmlns="http://www.w3.org/2000/svg" width="31.652" height="20.119" viewBox="0 0 31.652 20.119">
  <g id="Group_604" data-name="Group 604" transform="translate(-29.544 -372.013)">
    <g id="tenge" transform="translate(33.53 368.013)">
      <path id="Path_284" data-name="Path 284" d="M19.761,3.486a11.773,11.773,0,0,0-1.518-.543A2.832,2.832,0,0,0,15.417,0a2.8,2.8,0,0,0-2.747,2.176c-3.682.018-4.956,1.341-8.147,1.248A11.968,11.968,0,0,1,.876,2.848a.629.629,0,0,0-.862.584v13.2a.628.628,0,0,0,.4.584,13.416,13.416,0,0,0,3.113.622,2.8,2.8,0,0,0,.55,1.192,2.832,2.832,0,0,0,5.054-1.884,13.564,13.564,0,0,1,3.776-.514,17.43,17.43,0,0,1,6.346,1.2.629.629,0,0,0,.884-.574V4.06a.629.629,0,0,0-.371-.573ZM6.809,18.77A1.563,1.563,0,0,1,4.894,16.6a1.535,1.535,0,0,1,1.407-.88,1.573,1.573,0,0,1,1.572,1.572A1.534,1.534,0,0,1,6.809,18.77Zm5.779-9.654H10.7v4.715a.629.629,0,0,1-1.257,0V9.116H7.558a.629.629,0,0,1,0-1.257h5.029a.629.629,0,1,1,0,1.257Zm0-2.2H7.558a.629.629,0,1,1,0-1.257h5.029a.629.629,0,1,1,0,1.257ZM14.427,4.05a1.572,1.572,0,1,1,2.561-1.221A1.575,1.575,0,0,1,14.427,4.05Z" transform="translate(-4 4)" fill="#fff"/>
    </g>
    <g id="Group_329" data-name="Group 329" transform="translate(-58.267 -69)">
      <line id="Line_21" data-name="Line 21" x2="5.267" transform="translate(111.5 451.5)" fill="none" stroke="#fff" stroke-linecap="round" stroke-width="2"/>
      <path id="Path_285" data-name="Path 285" d="M4104.277,1619.074l1.92,1.92-1.92,1.92" transform="translate(-3987.733 -1169.574)" fill="none" stroke="#fff" stroke-linecap="round" stroke-linejoin="round" stroke-width="2"/>
    </g>
  </g>
</svg>
