<svg xmlns="http://www.w3.org/2000/svg" width="31.653" height="20.119" viewBox="0 0 31.653 20.119">
  <g id="Group_605" data-name="Group 605" transform="translate(-28.544 -425.013)">
    <g id="tenge" transform="translate(40.08 425.013)">
      <path id="Path_284" data-name="Path 284" d="M.385,3.486A11.773,11.773,0,0,1,1.9,2.943,2.832,2.832,0,0,1,4.729,0,2.8,2.8,0,0,1,7.476,2.176c3.682.018,4.956,1.341,8.147,1.248a11.969,11.969,0,0,0,3.646-.576.629.629,0,0,1,.862.584v13.2a.628.628,0,0,1-.4.584,13.416,13.416,0,0,1-3.113.622,2.8,2.8,0,0,1-.55,1.192,2.832,2.832,0,0,1-5.054-1.884,13.564,13.564,0,0,0-3.776-.514A17.43,17.43,0,0,0,.9,17.836a.629.629,0,0,1-.884-.574V4.06a.629.629,0,0,1,.371-.573ZM13.337,18.77A1.563,1.563,0,0,0,15.252,16.6a1.535,1.535,0,0,0-1.407-.88,1.573,1.573,0,0,0-1.572,1.572A1.534,1.534,0,0,0,13.337,18.77ZM7.558,9.116H9.444v4.715a.629.629,0,0,0,1.257,0V9.116h1.886a.629.629,0,1,0,0-1.257H7.558a.629.629,0,1,0,0,1.257Zm0-2.2h5.029a.629.629,0,1,0,0-1.257H7.558a.629.629,0,1,0,0,1.257ZM5.719,4.05A1.572,1.572,0,1,0,3.157,2.829,1.575,1.575,0,0,0,5.719,4.05Z" transform="translate(-0.014 0)" fill="#fff"/>
    </g>
    <g id="Group_330" data-name="Group 330" transform="translate(29.544 433.5)">
      <line id="Line_21" data-name="Line 21" x1="5.267" transform="translate(1.697 2)" fill="none" stroke="#fff" stroke-linecap="round" stroke-width="2"/>
      <path id="Path_285" data-name="Path 285" d="M4106.2,1619.074l-1.92,1.92,1.92,1.92" transform="translate(-4104.277 -1619.074)" fill="none" stroke="#fff" stroke-linecap="round" stroke-linejoin="round" stroke-width="2"/>
    </g>
  </g>
</svg>
