<svg xmlns="http://www.w3.org/2000/svg" width="36" height="42.663" viewBox="0 0 36 42.663">
  <g id="lock_1_" data-name="lock (1)" transform="translate(-38.73)">
    <g id="Group_492" data-name="Group 492" transform="translate(38.73)">
      <path id="Path_326" data-name="Path 326" d="M69.064,15.547V12.333a12.334,12.334,0,0,0-24.667,0v3.214a7.353,7.353,0,0,0-5.667,7.218V35.234a7.484,7.484,0,0,0,7.487,7.428H67.352a7.391,7.391,0,0,0,7.378-7.428V22.765A7.352,7.352,0,0,0,69.064,15.547Zm-11,14.106v4.74c0,.183-.029.27-.213.27h-1.79c-.184,0-.33-.092-.33-.275V29.672a2.646,2.646,0,0,1-1.853-2.714A2.934,2.934,0,0,1,56.8,23.992a2.892,2.892,0,0,1,2.9,2.642A3.173,3.173,0,0,1,58.064,29.653ZM66.73,15.329h-20V12.382a10,10,0,1,1,20,0Z" transform="translate(-38.73)" fill="#5087de"/>
    </g>
  </g>
</svg>
